<?xml version="1.0" standalone="no"?>
<!DOCTYPE svg PUBLIC "-//W3C//DTD SVG 20010904//EN"
 "http://www.w3.org/TR/2001/REC-SVG-20010904/DTD/svg10.dtd">
<svg version="1.0" xmlns="http://www.w3.org/2000/svg"
 width="120.000000pt" height="120.000000pt" viewBox="0 0 120.000000 120.000000"
 preserveAspectRatio="xMidYMid meet">
<metadata>
Created by potrace 1.14, written by Peter Selinger 2001-2017
</metadata>
<g transform="translate(0.000000,120.000000) scale(0.100000,-0.100000)"
fill="#000000" stroke="none">
<path d="M352 1090 c-22 -10 -43 -23 -46 -29 -4 -6 -18 -11 -31 -11 -43 0 -90
-31 -119 -76 -15 -24 -40 -53 -56 -64 -27 -19 -33 -30 -79 -131 -21 -48 -22
-108 -2 -133 7 -9 8 -22 3 -37 -14 -37 2 -84 49 -139 48 -56 86 -80 137 -87
18 -3 44 -15 57 -27 43 -40 157 -62 201 -38 32 17 59 8 92 -29 18 -20 45 -42
62 -49 36 -15 38 -24 38 -123 0 -43 4 -83 9 -88 13 -13 71 10 92 34 7 10 15
29 16 44 1 16 5 43 9 61 7 32 9 32 52 28 74 -6 127 11 175 57 24 23 52 43 62
44 43 7 73 36 80 80 2 10 10 32 19 48 32 60 27 203 -7 227 -5 4 -8 21 -7 37 2
16 -5 42 -15 57 -9 15 -18 37 -19 50 -2 42 -26 82 -63 108 -20 14 -42 26 -48
26 -6 0 -37 28 -70 61 -65 69 -121 99 -173 94 -19 -2 -58 3 -86 11 -57 16
-146 13 -168 -5 -11 -9 -20 -10 -36 -1 -35 19 -86 19 -128 0z"/>
</g>
</svg>
